<svg width="10" height="10" viewBox="0 0 10 10" fill="none" xmlns="http://www.w3.org/2000/svg">
<path d="M1.15607 0.274718C1.23515 0.18763 1.32907 0.118541 1.43246 0.071402C1.53584 0.0242634 1.64667 0 1.75859 0C1.87051 0 1.98133 0.0242634 2.08471 0.071402C2.1881 0.118541 2.28202 0.18763 2.3611 0.274718L5.45325 3.67377L8.5454 0.274718C8.62452 0.187709 8.71846 0.11869 8.82184 0.0716014C8.92522 0.0245127 9.03602 0.000276593 9.14792 0.00027659C9.25981 0.000276588 9.37062 0.0245127 9.47399 0.0716014C9.57737 0.11869 9.67131 0.187709 9.75043 0.274718C9.82955 0.361726 9.89232 0.46502 9.93514 0.578702C9.97796 0.692384 10 0.814228 10 0.937276C10 1.06033 9.97796 1.18217 9.93514 1.29585C9.89232 1.40953 9.82955 1.51283 9.75043 1.59984L6.65942 5.00014L9.75043 8.40044C9.91023 8.57616 10 8.81449 10 9.063C10 9.31151 9.91023 9.54984 9.75043 9.72556C9.59063 9.90128 9.3739 10 9.14792 10C8.92193 10 8.7052 9.90128 8.5454 9.72556L5.45325 6.32651L2.3611 9.72556C2.2013 9.90128 1.98457 10 1.75859 10C1.5326 10 1.31587 9.90128 1.15607 9.72556C0.996274 9.54984 0.906502 9.31151 0.906502 9.063C0.906502 8.81449 0.996274 8.57616 1.15607 8.40044L4.24708 5.00014L1.15607 1.59984C1.07688 1.51287 1.01405 1.40959 0.971181 1.2959C0.928315 1.18222 0.90625 1.06035 0.90625 0.937276C0.90625 0.814203 0.928315 0.692337 0.971181 0.578649C1.01405 0.464961 1.07688 0.361681 1.15607 0.274718Z" fill="white"/>
</svg>
