<svg width="20" height="21" viewBox="0 0 20 21" fill="none" xmlns="http://www.w3.org/2000/svg">
<path d="M5 9.55078H11.875V10.8008H5V9.55078ZM5 12.6758H13.125V13.9258H5V12.6758Z" fill="#6B6B6B"/>
<path d="M17.5 3.30078H2.5C2.16848 3.30078 1.85054 3.43248 1.61612 3.6669C1.3817 3.90132 1.25 4.21926 1.25 4.55078V17.0508C1.25 17.3823 1.3817 17.7002 1.61612 17.9347C1.85054 18.1691 2.16848 18.3008 2.5 18.3008H17.5C17.8315 18.3008 18.1495 18.1691 18.3839 17.9347C18.6183 17.7002 18.75 17.3823 18.75 17.0508V4.55078C18.75 4.21926 18.6183 3.90132 18.3839 3.6669C18.1495 3.43248 17.8315 3.30078 17.5 3.30078ZM17.5 4.55078V5.80078H2.5V4.55078H17.5ZM2.5 17.0508V7.05078H17.5V17.0508H2.5Z" fill="#6B6B6B"/>
</svg>
