<svg width="101" height="101" viewBox="0 0 101 101" fill="none" xmlns="http://www.w3.org/2000/svg">
<g id="Frame">
<g id="SVGRepo_iconCarrier">
<path id="Vector" fill-rule="evenodd" clip-rule="evenodd" d="M50.5 96.3334C75.8129 96.3334 96.3334 75.8129 96.3334 50.5C96.3334 25.187 75.8129 4.66669 50.5 4.66669C25.187 4.66669 4.66669 25.187 4.66669 50.5C4.66669 75.8129 25.187 96.3334 50.5 96.3334ZM13.489 56.3917C13.1859 54.4721 13.0285 52.5046 13.0285 50.5C13.0285 33.5406 24.2951 19.2127 39.7519 14.5927C39.1199 17.9784 37.6716 20.6201 36.183 23.3357C35.9103 23.8333 35.6359 24.3337 35.3652 24.8413C34.3226 26.7963 33.0521 29.3737 33.0521 32.3034C33.0521 35.5269 34.5397 38.349 37.1371 40.9463C39.9913 43.8004 40.5779 46.0829 41.2407 48.6621C41.3342 49.0259 41.4292 49.3954 41.5323 49.7733C41.9621 51.3496 42.6463 53.4867 44.4613 55.3017C46.2775 57.1179 48.7383 58.1467 51.7663 58.7525C61.1846 60.6363 64.125 64.15 65.5234 66.9467C65.6467 67.1938 65.8788 68.0321 66.0054 69.8071C66.1229 71.4529 66.125 73.3775 66.125 75.5V75.5871C66.125 77.6075 66.125 79.8146 66.2659 81.7863C66.3234 82.5917 66.4096 83.4738 66.5625 84.3642C62.7663 86.1679 58.6184 87.3521 54.25 87.7863C53.8346 85.8913 53.0642 84.1271 51.75 82.375C49.7617 79.7242 46.6288 77.2842 42.5834 74.25C41.5007 73.4379 41.2065 72.6842 41.1083 71.7879C40.9748 70.5692 41.2175 69.1829 41.6027 67.0209L41.6268 66.8859C41.9476 65.0892 42.4309 62.3829 41.8166 59.8096C41.0607 56.6421 38.8758 54.2796 35.3808 52.8813C28.8192 50.2567 21.7028 52.4667 16.9815 54.6158C15.7122 55.1938 14.5361 55.8038 13.489 56.3917ZM15.8127 64.7004C20.7721 76.8017 31.88 85.7325 45.2509 87.6067C44.1434 86.0113 42.0897 84.2963 37.5834 80.9167C34.4993 78.6038 33.1514 75.6796 32.8245 72.695C32.5543 70.2283 33.006 67.7309 33.3255 65.9646L33.3986 65.5592C33.7805 63.4154 33.8678 62.4013 33.7109 61.7438L33.7051 61.7159C33.6747 61.5596 33.5935 61.1417 32.2859 60.6188C29.0681 59.3317 24.7262 60.2467 20.434 62.2004C18.6341 63.0196 17.0356 63.9338 15.8127 64.7004ZM50.5 13.0285C49.7729 13.0285 49.0508 13.0492 48.3342 13.09C47.8425 19.5199 45.26 24.1703 43.4446 27.4385C43.1838 27.9081 42.9388 28.3492 42.7183 28.7629C41.6774 30.7142 41.3854 31.6524 41.3854 32.3034C41.3854 32.6606 41.4603 33.4844 43.0296 35.0537C47.5534 39.5773 48.6313 43.8646 49.3279 46.635C49.4129 46.9738 49.4925 47.2896 49.5721 47.5809C49.9234 48.8692 50.1509 49.2063 50.3538 49.4092C50.5559 49.6113 51.22 50.145 53.4004 50.5808C64.8154 52.8638 70.2084 57.6834 72.9767 63.22C73.895 65.0563 74.1838 67.3429 74.3175 69.2138C74.4584 71.1854 74.4584 73.3925 74.4584 75.4134V75.5C74.4584 76.8492 74.4592 78.1184 74.49 79.2867C82.7292 72.4129 87.9717 62.0688 87.9717 50.5C87.9717 49.9425 87.9592 49.3875 87.9354 48.8359C84.8896 48.9217 82.5059 47.7267 80.6275 46.785C77.6413 45.2892 74.7238 44.25 71.3334 44.25C68.2013 44.25 65.545 43.625 63.425 42.094C61.3075 40.5646 60.2846 38.5248 59.6521 36.9433C59.2917 36.0416 59.0229 35.2927 58.7959 34.659C58.1221 32.7783 57.8104 31.9092 56.5221 31.0502C54.3242 29.5849 52.6179 27.5509 52.3717 24.7595C52.1609 22.372 53.1513 20.2554 53.8046 18.9491C54.0913 18.3757 54.3717 17.8404 54.6371 17.3333C55.3679 15.9373 55.9929 14.7437 56.3696 13.4855C54.4571 13.1847 52.4967 13.0285 50.5 13.0285ZM86.5713 40.3166C85.9725 40.1193 85.2229 39.7654 84.1342 39.2211L84.1133 39.2107C81.3633 37.8356 77.5254 35.9167 71.3334 35.9167C69.2571 35.9167 68.5279 35.5 68.3042 35.3383C68.0779 35.1751 67.7988 34.8711 67.3896 33.8484C67.2917 33.6035 67.1842 33.28 67.0571 32.8981C66.3388 30.7366 64.9913 26.6809 61.1446 24.1165C60.5334 23.7091 60.9538 23.2844 61.2579 22.6759C61.4038 22.3844 61.5858 22.0471 61.7909 21.6672C62.5684 20.2265 63.6763 18.1736 64.3875 15.6862C75.1175 19.9703 83.4029 29.0713 86.5713 40.3166Z" fill="#0D82BE" stroke="#0D82BE"/>
</g>
</g>
</svg>
