<svg width="23" height="28" viewBox="0 0 23 28" fill="none" xmlns="http://www.w3.org/2000/svg">
<g id="Group 7">
<path id="Vector" d="M11.5 16C10.5111 16 9.54438 15.7068 8.72214 15.1574C7.89989 14.6079 7.25903 13.8271 6.88059 12.9134C6.50215 11.9998 6.40313 10.9945 6.59606 10.0246C6.78899 9.05465 7.26519 8.16373 7.96445 7.46447C8.66372 6.76521 9.55463 6.289 10.5245 6.09608C11.4944 5.90315 12.4998 6.00217 13.4134 6.3806C14.327 6.75904 15.1079 7.39991 15.6573 8.22215C16.2067 9.0444 16.5 10.0111 16.5 11C16.4984 12.3256 15.9711 13.5964 15.0338 14.5338C14.0964 15.4711 12.8256 15.9984 11.5 16ZM11.5 8C10.9066 8 10.3266 8.17595 9.83328 8.50559C9.33993 8.83524 8.95541 9.30377 8.72835 9.85195C8.50129 10.4001 8.44188 11.0033 8.55763 11.5853C8.67339 12.1672 8.95911 12.7018 9.37867 13.1213C9.79822 13.5409 10.3328 13.8266 10.9147 13.9424C11.4967 14.0581 12.0999 13.9987 12.648 13.7716C13.1962 13.5446 13.6648 13.1601 13.9944 12.6667C14.324 12.1734 14.5 11.5933 14.5 11C14.4992 10.2046 14.1829 9.442 13.6204 8.87956C13.058 8.31712 12.2954 8.0008 11.5 8Z" fill="#0D82BE"/>
<path id="Vector_2" d="M11.5 28L3.064 18.051C2.94678 17.9016 2.83077 17.7513 2.716 17.6C1.27498 15.7018 0.496504 13.3832 0.499996 11C0.499996 8.08262 1.65892 5.28473 3.72182 3.22183C5.78472 1.15893 8.58261 0 11.5 0C14.4174 0 17.2153 1.15893 19.2782 3.22183C21.3411 5.28473 22.5 8.08262 22.5 11C22.5035 13.3821 21.7254 15.6996 20.285 17.597L20.284 17.6C20.284 17.6 19.984 17.994 19.939 18.047L11.5 28ZM4.312 16.395C4.314 16.395 4.546 16.703 4.599 16.769L11.5 24.908L18.41 16.758C18.454 16.703 18.688 16.393 18.689 16.392C19.8661 14.8411 20.5023 12.947 20.5 11C20.5 8.61305 19.5518 6.32387 17.864 4.63604C16.1761 2.94821 13.8869 2 11.5 2C9.11305 2 6.82386 2.94821 5.13604 4.63604C3.44821 6.32387 2.5 8.61305 2.5 11C2.4979 12.9482 3.13377 14.8434 4.312 16.395Z" fill="#0D82BE"/>
</g>
</svg>
