<svg width="69" height="68" viewBox="0 0 69 68" fill="none" xmlns="http://www.w3.org/2000/svg">
<g id="Group">
<rect id="circle" x="0.5" width="68" height="68" rx="34" fill="#0D82BE"/>
<path id="smile emoji" d="M34.5 19C42.7843 19 49.5 25.7163 49.5 34.0015C49.5 42.2852 42.7828 49 34.5 49C26.2157 49.0015 19.5 42.2852 19.5 34.0015C19.5 25.7163 26.2157 19 34.5 19ZM34.5 21.2498C32.814 21.2315 31.1412 21.5478 29.5783 22.1804C28.0154 22.813 26.5935 23.7493 25.3948 24.9352C24.1961 26.121 23.2446 27.5328 22.5951 29.089C21.9457 30.6451 21.6113 32.3145 21.6113 34.0007C21.6113 35.687 21.9457 37.3564 22.5951 38.9125C23.2446 40.4687 24.1961 41.8805 25.3948 43.0663C26.5935 44.2522 28.0154 45.1885 29.5783 45.8211C31.1412 46.4537 32.814 46.77 34.5 46.7517C37.8575 46.7153 41.0651 45.3559 43.4264 42.9686C45.7877 40.5812 47.1122 37.3588 47.1122 34.0007C47.1122 30.6427 45.7877 27.4203 43.4264 25.0329C41.0651 22.6456 37.8575 21.2862 34.5 21.2498ZM29.1941 38.1756C29.8253 38.9792 30.631 39.6286 31.5503 40.0748C32.4695 40.5209 33.4782 40.7521 34.5 40.7508C35.5207 40.7521 36.5283 40.5213 37.4467 40.076C38.3651 39.6306 39.1703 38.9823 39.8014 38.1801C39.893 38.0642 40.0065 37.9674 40.1355 37.8954C40.2645 37.8233 40.4063 37.7774 40.553 37.7602C40.6998 37.743 40.8484 37.7549 40.9905 37.7951C41.1327 37.8354 41.2655 37.9033 41.3814 37.9949C41.4973 38.0864 41.594 38.2 41.666 38.3289C41.7381 38.4579 41.784 38.5998 41.8012 38.7465C41.8184 38.8933 41.8065 39.0419 41.7663 39.1841C41.726 39.3262 41.6582 39.459 41.5666 39.5749C40.7249 40.6438 39.6515 41.5075 38.4274 42.1009C37.2033 42.6944 35.8604 43.002 34.5 43.0006C33.1377 43.0019 31.7928 42.6934 30.5673 42.0984C29.3417 41.5033 28.2675 40.6374 27.4259 39.5659C27.3345 39.4498 27.2669 39.3169 27.2269 39.1746C27.1869 39.0324 27.1753 38.8836 27.1928 38.7369C27.2103 38.5902 27.2565 38.4483 27.3288 38.3195C27.4011 38.1906 27.498 38.0772 27.6141 37.9858C27.7302 37.8945 27.8632 37.8268 28.0054 37.7868C28.1476 37.7468 28.2964 37.7352 28.4431 37.7527C28.5898 37.7702 28.7316 37.8164 28.8605 37.8887C28.9893 37.961 29.1027 38.058 29.1941 38.1741V38.1756ZM30.0009 29.127C30.2514 29.1199 30.5009 29.1631 30.7344 29.2541C30.9679 29.3451 31.1809 29.482 31.3606 29.6567C31.5403 29.8315 31.6832 30.0405 31.7807 30.2714C31.8783 30.5023 31.9285 30.7504 31.9285 31.001C31.9285 31.2517 31.8783 31.4998 31.7807 31.7307C31.6832 31.9616 31.5403 32.1706 31.3606 32.3454C31.1809 32.5201 30.9679 32.657 30.7344 32.748C30.5009 32.839 30.2514 32.8822 30.0009 32.8751C29.5131 32.8613 29.0499 32.6578 28.7097 32.3079C28.3696 31.9579 28.1793 31.4891 28.1793 31.001C28.1793 30.513 28.3696 30.0442 28.7097 29.6942C29.0499 29.3443 29.5131 29.1408 30.0009 29.127ZM38.9991 29.127C39.2496 29.1199 39.4991 29.1631 39.7326 29.2541C39.9661 29.3451 40.1791 29.482 40.3588 29.6567C40.5385 29.8315 40.6814 30.0405 40.7789 30.2714C40.8765 30.5023 40.9267 30.7504 40.9267 31.001C40.9267 31.2517 40.8765 31.4998 40.7789 31.7307C40.6814 31.9616 40.5385 32.1706 40.3588 32.3454C40.1791 32.5201 39.9661 32.657 39.7326 32.748C39.4991 32.839 39.2496 32.8822 38.9991 32.8751C38.5113 32.8613 38.0481 32.6578 37.7079 32.3079C37.3678 31.9579 37.1775 31.4891 37.1775 31.001C37.1775 30.513 37.3678 30.0442 37.7079 29.6942C38.0481 29.3443 38.5113 29.1408 38.9991 29.127Z" fill="white"/>
</g>
</svg>
