<svg width="69" height="68" viewBox="0 0 69 68" fill="none" xmlns="http://www.w3.org/2000/svg">
<g id="Group 1">
<rect id="circle" x="0.5" width="68" height="68" rx="34" fill="#0D82BE"/>
<path id="peoples" d="M40.956 19.7778C41.7324 20.2617 42.3748 20.9459 42.8206 21.7637C43.2664 22.5815 43.5005 23.505 43.5 24.4444C43.5005 25.3839 43.2664 26.3074 42.8206 27.1252C42.3748 27.943 41.7324 28.6272 40.956 29.1111M49.5 47V46.0667C49.5 42.5822 49.5 40.84 48.846 39.5084C48.2708 38.3377 47.3529 37.3859 46.224 36.7893M30.75 29.8889C31.4394 29.8889 32.1221 29.7481 32.7591 29.4745C33.396 29.2008 33.9748 28.7998 34.4623 28.2942C34.9498 27.7887 35.3365 27.1885 35.6004 26.5279C35.8642 25.8674 36 25.1594 36 24.4444C36 23.7295 35.8642 23.0215 35.6004 22.3609C35.3365 21.7004 34.9498 21.1002 34.4623 20.5946C33.9748 20.0891 33.396 19.688 32.7591 19.4144C32.1221 19.1408 31.4394 19 30.75 19C29.3576 19 28.0223 19.5736 27.0377 20.5946C26.0531 21.6157 25.5 23.0005 25.5 24.4444C25.5 25.8884 26.0531 27.2732 27.0377 28.2942C28.0223 29.3153 29.3576 29.8889 30.75 29.8889ZM19.5 46.0667V47H42V46.0667C42 42.5822 42 40.84 41.346 39.5084C40.7708 38.3377 39.8529 37.3859 38.724 36.7893C37.44 36.1111 35.76 36.1111 32.4 36.1111H29.1C25.74 36.1111 24.06 36.1111 22.776 36.7893C21.6471 37.3859 20.7292 38.3377 20.154 39.5084C19.5 40.84 19.5 42.5822 19.5 46.0667Z" stroke="#F8F8F8" stroke-width="4" stroke-linecap="round" stroke-linejoin="round"/>
</g>
</svg>
