<svg width="25" height="26" viewBox="0 0 25 26" fill="none" xmlns="http://www.w3.org/2000/svg">
<path id="heart" d="M18.683 0.500124C16.5411 0.48569 14.3482 1.72564 12.9425 4.64457L12.527 5.50704L12.0819 4.66085C10.3662 1.39135 7.27164 0.178878 4.64966 0.745563C2.02762 1.31236 -0.112126 3.5772 0.00455644 7.6217C0.0716223 9.94456 0.997194 11.7969 2.36322 13.5145C2.75347 12.4081 3.03913 11.1592 3.21562 9.7706L3.2172 9.75974L3.21894 9.74704C3.39081 8.73203 4.06688 8.10443 4.76445 8.05478C4.8641 8.04762 4.96417 8.05212 5.06341 8.06921C5.84496 8.20334 6.48819 9.0751 6.36257 10.182V10.1854L6.36099 10.1891C6.08795 12.3364 5.55116 14.3346 4.74637 16.0855C4.93306 16.2676 5.12164 16.4504 5.31306 16.634C5.43479 16.7505 5.56114 16.8685 5.68429 16.9857C6.21083 16.8444 6.78194 16.6322 7.38264 16.3615C7.4054 16.4017 7.42863 16.442 7.45323 16.4824L7.95917 17.3123C7.49349 17.5254 7.03717 17.7077 6.5942 17.8535C8.82703 19.9872 11.1259 22.3228 12.5203 25.5C13.4076 23.5811 14.6316 21.9972 15.963 20.5852C15.8655 20.4998 15.7778 20.4016 15.7018 20.293C15.2803 19.6892 15.2988 18.8828 15.559 18.1567C15.8191 17.4306 16.3217 16.7246 17.0077 16.1467C17.6936 15.5689 18.4436 15.2206 19.1494 15.1329C19.3259 15.1109 19.5023 15.1054 19.675 15.1202C20.187 15.1641 20.663 15.3803 20.9791 15.822C21.9893 14.8284 22.8912 13.8197 23.5759 12.7259C24.4905 11.2652 25.0309 9.66644 24.9737 7.65415C24.8988 5.01414 23.816 3.01039 22.2981 1.80474C22.2314 2.42114 22.0547 3.06166 21.7922 3.71905C21.7882 3.71617 21.7846 3.71299 21.7806 3.7101L20.9463 3.10214C21.2132 2.38303 21.3521 1.73032 21.3438 1.1824C20.961 0.979436 20.5603 0.819837 20.1481 0.706071C19.6696 0.574432 19.1773 0.503647 18.683 0.500298L18.683 0.500124ZM19.4008 3.56744C19.5998 3.56478 19.928 3.65704 20.3403 3.95716L21.2386 4.61033C21.9038 5.09457 21.8956 5.5724 21.8152 5.72349C21.775 5.79901 21.7206 5.85819 21.5458 5.86784C21.371 5.87748 21.0726 5.80415 20.6868 5.52315L19.79 4.87015C19.4089 4.59267 19.2076 4.30289 19.1264 4.08886C19.0452 3.87477 19.0737 3.75733 19.1083 3.6955C19.143 3.63372 19.2018 3.57009 19.4008 3.56732V3.56744ZM4.9453 5.73625C6.0891 5.7463 7.20089 6.39809 7.81305 7.55496C8.68018 9.19352 8.2381 11.2773 6.85053 12.3488L7.1856 10.1061C7.36209 9.45697 7.30086 8.73295 6.9639 8.09618C6.55667 7.32672 5.84313 6.8743 5.08979 6.81697C5.03293 6.81288 4.97595 6.81107 4.91897 6.81154C4.5211 6.81287 4.11891 6.92424 3.74784 7.15796C3.0723 7.58348 2.66354 8.31015 2.58339 9.0885L2.15135 11.3962C2.11173 11.332 2.07395 11.2664 2.03808 11.1996C1.11882 9.46257 1.66869 7.22297 3.25851 6.22153C3.7552 5.9086 4.29777 5.75271 4.8353 5.73804C4.87219 5.737 4.90836 5.73585 4.9453 5.73625ZM19.4484 5.91841L20.1448 6.42361C20.1871 6.45444 20.2293 6.48209 20.2713 6.51021C19.8758 7.10126 19.4343 7.6967 18.9557 8.29104L18.228 7.56564C18.6731 7.0124 19.0832 6.46085 19.4485 5.91841H19.4484ZM16.528 7.77684C16.5627 7.77511 16.6036 7.77828 16.6529 7.78584C16.85 7.81598 17.1619 7.96038 17.5284 8.32528L17.6695 8.46598L18.3265 9.12094C18.9178 9.70963 18.844 10.181 18.7437 10.3172C18.6936 10.3852 18.6321 10.4339 18.4579 10.4146C18.2838 10.3952 17.9994 10.2743 17.6564 9.93284L16.8582 9.13896C16.5194 8.80178 16.3604 8.48174 16.3095 8.25674C16.2585 8.03157 16.3029 7.9206 16.3457 7.86517C16.3778 7.8236 16.4239 7.78186 16.5279 7.77684H16.528ZM4.81217 9.12643C4.57056 9.12828 4.29436 9.29704 4.18482 9.94375C3.67846 13.8948 2.29058 16.9397 0.0310464 18.7919L0.0309413 20.3255C3.01569 18.3119 4.80786 14.6084 5.38875 10.0394C5.45828 9.39987 5.18308 9.18186 4.9124 9.13544C4.87982 9.12984 4.84665 9.1262 4.81217 9.12643ZM16.1553 9.89502C16.1695 9.90957 16.1835 9.92389 16.198 9.93832L16.8846 10.6204C16.498 11.0181 16.1037 11.4067 15.702 11.7859C15.5231 11.9542 15.343 12.1208 15.1615 12.2857L14.5194 11.4701C14.7023 11.3048 14.8838 11.1375 15.063 10.9686C15.4337 10.619 15.7979 10.2611 16.1552 9.89502H16.1553ZM12.7619 11.4575C12.8053 11.4556 12.8607 11.4635 12.9327 11.4846C13.1251 11.5407 13.4204 11.7253 13.7442 12.1359L14.4488 13.0291C14.9712 13.6917 14.8474 14.1504 14.7329 14.2722C14.6758 14.3331 14.608 14.374 14.4373 14.3318C14.2666 14.2895 13.9979 14.1314 13.6949 13.7472L12.9887 12.854C12.6895 12.4745 12.5679 12.1369 12.542 11.9068C12.516 11.6766 12.5723 11.57 12.6208 11.5206C12.645 11.496 12.6746 11.473 12.7226 11.4629C12.7347 11.4604 12.7477 11.4581 12.7621 11.4575L12.7619 11.4575ZM12.1509 13.4332C12.182 13.476 12.2137 13.5181 12.2462 13.5596L12.8079 14.2704C12.0797 14.8357 11.3455 15.3613 10.6168 15.8329C10.5846 15.7722 10.5506 15.7126 10.5149 15.6543L10.0518 14.8965C10.7449 14.4554 11.4498 13.9645 12.1508 13.4332L12.1509 13.4332ZM8.16126 14.4672C8.21004 14.4637 8.27595 14.475 8.36824 14.5158C8.55272 14.5976 8.82382 14.8205 9.09913 15.2719L9.69862 16.2552C10.1428 16.9835 9.96878 17.4218 9.84159 17.5273C9.77799 17.5799 9.70567 17.6103 9.54095 17.5453C9.37622 17.4803 9.12678 17.2875 8.86924 16.8651L8.26969 15.8836C8.0153 15.4664 7.93289 15.1141 7.93294 14.8822C7.93305 14.6503 7.99917 14.5529 8.05278 14.5105C8.08426 14.4846 8.122 14.4696 8.16126 14.4672ZM19.4337 16.1902C19.378 16.1919 19.3203 16.1971 19.2595 16.2046C18.773 16.2653 18.1647 16.5329 17.6055 17.004C17.0463 17.4751 16.6532 18.0516 16.4739 18.5521C16.2945 19.0526 16.3291 19.4173 16.4821 19.6364C16.6351 19.8556 16.9449 19.9856 17.4314 19.9251C17.5327 19.9125 17.6398 19.8904 17.7501 19.8602C17.5891 19.3706 17.6142 18.8717 17.8042 18.4745C18.0936 17.8698 18.683 17.5085 19.3137 17.5291C19.596 17.5382 19.8731 17.6345 20.1267 17.8014C20.1606 17.7285 20.1913 17.6538 20.2187 17.5777C20.3981 17.0771 20.3635 16.7143 20.2105 16.4951C20.0958 16.3309 19.893 16.2153 19.5929 16.1938C19.5399 16.1899 19.4868 16.1887 19.4337 16.1902ZM19.2349 18.608C18.9919 18.6201 18.7689 18.7795 18.6748 18.9761C18.5751 19.1847 18.542 19.4463 18.8884 19.8819C20.3192 21.5323 22.5536 22.9934 25 23.5932V22.121C22.9343 21.5131 21.0098 20.2619 19.8229 18.8967C19.6289 18.6882 19.446 18.6134 19.2842 18.608C19.2679 18.6075 19.2512 18.6072 19.2349 18.608L19.2349 18.608Z" fill="#0D82BE"/>
</svg>
