<svg width="101" height="101" viewBox="0 0 101 101" fill="none" xmlns="http://www.w3.org/2000/svg">
<g clip-path="url(#clip0_1_120)">
<path d="M44.0232 32.6735V29.2063C44.0232 26.1506 41.5374 23.6646 38.4815 23.6646C37.5632 23.6646 36.6968 23.8906 35.9333 24.2877V23.8982C35.9333 20.8425 33.4473 18.3566 30.3916 18.3566C29.4528 18.3566 28.5678 18.5921 27.7922 19.006C27.4274 16.3011 25.1051 14.2085 22.3021 14.2085C20.7076 14.2085 19.2691 14.8864 18.257 15.9679C17.2451 14.8862 15.8066 14.2085 14.212 14.2085C11.1563 14.2085 8.67038 16.6945 8.67038 19.7501V41.5792C7.88775 41.1556 6.99204 40.9146 6.04106 40.9146C2.98596 40.9148 0.5 43.4007 0.5 46.4562V64.4243C0.5 64.611 0.534961 64.7962 0.603126 64.9698L8.77389 85.8401C8.99831 86.4139 9.55144 86.7913 10.1675 86.7913H35.2296C40.1112 86.7913 44.0828 82.8198 44.0828 77.9381V50.6637L44.0232 32.6735ZM41.09 77.9381H41.0896C41.0896 81.1692 38.4608 83.7979 35.2298 83.7979H11.189L3.49338 64.1417V46.4562C3.49338 45.0511 4.63656 43.9079 6.04164 43.9079C7.44673 43.9079 8.58991 45.0511 8.58991 46.4562V56.4971C8.58991 57.2106 9.10104 57.8262 9.80046 57.9663C10.0936 58.0249 16.979 59.5004 16.979 67.9816C16.979 68.8081 17.649 69.4783 18.4757 69.4783C19.3025 69.4783 19.9724 68.8081 19.9724 67.9816C19.9724 62.2667 17.3779 59.0452 15.2013 57.3489C13.862 56.3051 12.5149 55.7037 11.5835 55.3756V54.4852C11.6352 54.3334 11.6645 54.1717 11.6645 54.0024V19.7503C11.6645 18.3452 12.8077 17.2021 14.2128 17.2021C15.6179 17.2021 16.7607 18.3454 16.7607 19.7503V32.0825V45.8681C16.7607 46.6947 17.4306 47.3648 18.2574 47.3648C19.0841 47.3648 19.7541 46.6947 19.7541 45.8681V32.0825V19.7503C19.7541 18.3452 20.8974 17.2021 22.3025 17.2021C23.7076 17.2021 24.8508 18.3452 24.8508 19.7503V23.8982V27.3652V45.8781C24.8508 46.7046 25.5207 47.3748 26.3475 47.3748C27.1742 47.3748 27.8442 46.7046 27.8442 45.8781V27.3652V23.8982C27.8442 22.4931 28.9873 21.35 30.3924 21.35C31.7975 21.35 32.9407 22.4931 32.9407 23.8982V29.2063V32.6733V45.8781C32.9407 46.7046 33.6106 47.3748 34.4374 47.3748C35.2641 47.3748 35.9341 46.7046 35.9341 45.8781V32.6733V29.2063C35.9341 27.8012 37.0772 26.658 38.4823 26.658C39.8874 26.658 41.0308 27.8012 41.0308 29.2063V32.6782L41.0904 50.6683V77.9381H41.09Z" fill="white" stroke="#0D82BE" stroke-width="0.390628"/>
<path d="M94.9591 40.9149C94.0082 40.9149 93.1126 41.1559 92.3296 41.5796V19.7505C92.3296 16.6948 89.8437 14.2089 86.788 14.2089C85.1934 14.2089 83.7549 14.8868 82.743 15.9683C81.7311 14.8866 80.2926 14.2089 78.6981 14.2089C75.8947 14.2089 73.5724 16.3015 73.2076 19.0064C72.432 18.5925 71.547 18.3569 70.6082 18.3569C67.5525 18.3569 65.0665 20.8429 65.0665 23.8986V24.2882C64.303 23.8912 63.4368 23.6652 62.5183 23.6652C59.4626 23.6652 56.9766 26.1511 56.9766 29.2068V32.6688L56.9541 39.5198C56.9079 39.7257 56.9053 39.9434 56.952 40.1608L56.9172 50.6689V59.8537C56.9172 59.8571 56.9172 59.8604 56.9172 59.8637V77.9385C56.9172 82.8201 60.8886 86.7916 65.7702 86.7916H90.8323C91.4484 86.7916 92.0013 86.4143 92.2259 85.8405L100.397 64.9702C100.465 64.7962 100.5 64.6112 100.5 64.4245V46.4564C100.501 43.4009 98.0148 40.9149 94.9591 40.9149ZM70.6086 21.3501C72.0136 21.3501 73.1568 22.4933 73.1568 23.8984V27.3654V33.8926L68.0605 35.4112V32.6737V29.2066V23.8986H68.0603C68.0605 22.4933 69.2035 21.3501 70.6086 21.3501ZM59.9708 29.2064C59.9708 27.8014 61.1139 26.6582 62.519 26.6582C63.9241 26.6582 65.0673 27.8014 65.0673 29.2064V32.6735V36.303L59.9542 37.8264L59.9712 32.6735V29.2064H59.9708ZM97.508 64.1419H97.5074L89.8116 83.7981H65.7708C62.5399 83.7981 59.9112 81.1693 59.9112 77.9383V60.9915L71.9257 57.4117C72.7179 57.1756 73.1689 56.3422 72.9328 55.55C72.6967 54.7578 71.8627 54.3066 71.0711 54.543L59.9112 57.868V50.6736L59.9434 40.9528L65.0671 39.4262V45.8782C65.0671 46.7048 65.737 47.3749 66.5638 47.3749C67.3906 47.3749 68.0605 46.7048 68.0605 45.8782V38.5342L73.1568 37.0157V45.8781C73.1568 46.7046 73.8267 47.3747 74.6535 47.3747C75.4803 47.3747 76.1502 46.7046 76.1502 45.8781V36.1237L78.5537 35.4075C79.3459 35.1713 79.7969 34.3379 79.5608 33.5457C79.3246 32.7535 78.4905 32.3026 77.699 32.5387L76.1502 33V27.365V23.898V19.7505C76.1502 18.3454 77.2936 17.2022 78.6987 17.2022C80.1037 17.2022 81.2469 18.3454 81.2469 19.7505V32.0826V45.8683C81.2469 46.6949 81.9168 47.365 82.7436 47.365C83.5704 47.365 84.2403 46.6949 84.2403 45.8683V32.0826V19.7505C84.2403 18.3454 85.3835 17.2022 86.7886 17.2022C88.1937 17.2022 89.3368 18.3454 89.3368 19.7505V54.0025C89.3368 54.1717 89.3661 54.3336 89.4179 54.4853V55.3758C88.4862 55.7041 87.1393 56.3053 85.8001 57.349C83.6235 59.0453 81.0289 62.2669 81.0289 67.9817C81.0289 68.8083 81.6989 69.4784 82.5256 69.4784C83.3524 69.4784 84.0223 68.8083 84.0223 67.9817C84.0223 59.5004 90.9077 58.0252 91.1937 57.9678C91.9001 57.8338 92.4117 57.2162 92.4117 56.4973V46.4564C92.4117 45.0513 93.555 43.9081 94.9601 43.9081C96.3652 43.9081 97.5084 45.0513 97.5084 46.4564V64.1419H97.508Z" fill="white" stroke="#0D82BE" stroke-width="0.390628"/>
<path d="M36.7944 63.8221C36.3501 63.1253 35.4249 62.9208 34.7278 63.3651L24.51 69.882C23.8131 70.3263 23.6084 71.2517 24.0529 71.9486C24.3385 72.3962 24.8221 72.6406 25.3162 72.6406C25.5916 72.6406 25.8701 72.5646 26.1197 72.4054L36.3376 65.8886C37.0345 65.4444 37.2392 64.519 36.7944 63.8221Z" fill="white" stroke="#0D82BE" stroke-width="0.390628"/>
<path d="M36.7944 70.3392C36.3499 69.6423 35.4251 69.4376 34.7278 69.8822L24.51 76.399C23.8131 76.8434 23.6084 77.7688 24.0529 78.4656C24.3385 78.9131 24.8221 79.1576 25.3162 79.1576C25.5916 79.1576 25.8701 79.0818 26.1197 78.9225L36.3376 72.4056C37.0345 71.9613 37.2392 71.0359 36.7944 70.3392Z" fill="white" stroke="#0D82BE" stroke-width="0.390628"/>
<path d="M75.4574 60.8413C75.2213 60.0491 74.3867 59.5981 73.5955 59.8342L65.1868 62.3397C64.3946 62.5759 63.9437 63.4093 64.1798 64.2014C64.3733 64.8511 64.9687 65.2712 65.6136 65.2712C65.755 65.2712 65.8991 65.2509 66.0417 65.2085L74.4504 62.703C75.2428 62.4669 75.6936 61.6337 75.4574 60.8413Z" fill="white" stroke="#0D82BE" stroke-width="0.390628"/>
</g>
<defs>
<clipPath id="clip0_1_120">
<rect width="100" height="100" fill="white" transform="translate(0.5 0.5)"/>
</clipPath>
</defs>
</svg>
