<svg width="20" height="17" viewBox="0 0 20 17" fill="none" xmlns="http://www.w3.org/2000/svg">
<path id="mail" d="M18.75 0.5H1.25C0.918479 0.5 0.600537 0.640476 0.366116 0.890524C0.131696 1.14057 0 1.47971 0 1.83333V15.1667C0 15.5203 0.131696 15.8594 0.366116 16.1095C0.600537 16.3595 0.918479 16.5 1.25 16.5H18.75C19.0815 16.5 19.3995 16.3595 19.6339 16.1095C19.8683 15.8594 20 15.5203 20 15.1667V1.83333C20 1.47971 19.8683 1.14057 19.6339 0.890524C19.3995 0.640476 19.0815 0.5 18.75 0.5ZM17.7875 15.1667H2.2875L6.6625 10.34L5.7625 9.41333L1.25 14.3933V2.84667L9.01875 11.0933C9.25295 11.3417 9.56977 11.4811 9.9 11.4811C10.2302 11.4811 10.547 11.3417 10.7812 11.0933L18.75 2.64V14.3067L14.15 9.4L13.2687 10.34L17.7875 15.1667ZM2.06875 1.83333H17.7375L9.9 10.1467L2.06875 1.83333Z" fill="#F8F8F8"/>
</svg>
