<svg width="25" height="24" viewBox="0 0 25 24" fill="none" xmlns="http://www.w3.org/2000/svg">
<path d="M12.5 4V2H22.5V4H12.5ZM12.5 8V6H22.5V8H12.5ZM12.5 12V10H22.5V12H12.5ZM19.45 22C17.3667 22 15.3083 21.5457 13.275 20.637C11.2417 19.7283 9.39167 18.441 7.725 16.775C6.05833 15.1083 4.771 13.2583 3.863 11.225C2.955 9.19167 2.50067 7.13333 2.5 5.05C2.5 4.75 2.6 4.5 2.8 4.3C3 4.1 3.25 4 3.55 4H7.6C7.83333 4 8.04167 4.07933 8.225 4.238C8.40833 4.39667 8.51667 4.584 8.55 4.8L9.2 8.3C9.23333 8.56667 9.225 8.79167 9.175 8.975C9.125 9.15833 9.03333 9.31667 8.9 9.45L6.475 11.9C6.80833 12.5167 7.204 13.1127 7.662 13.688C8.12 14.2633 8.62433 14.8173 9.175 15.35C9.69167 15.8667 10.2333 16.346 10.8 16.788C11.3667 17.23 11.9667 17.634 12.6 18L14.95 15.65C15.1 15.5 15.296 15.3873 15.538 15.312C15.78 15.2367 16.0173 15.216 16.25 15.25L19.7 15.95C19.9333 16.0167 20.125 16.1377 20.275 16.313C20.425 16.4883 20.5 16.684 20.5 16.9V20.95C20.5 21.25 20.4 21.5 20.2 21.7C20 21.9 19.75 22 19.45 22Z" fill="#0D82BE"/>
</svg>
