<svg width="101" height="101" viewBox="0 0 101 101" fill="none" xmlns="http://www.w3.org/2000/svg">
<g id="recycle-2">
<g id="SVGRepo_iconCarrier">
<path id="primary" d="M90.9583 30.1667L81.75 45.75C81.1863 46.7002 80.2683 47.3877 79.1978 47.6611C78.1273 47.9346 76.9921 47.7717 76.0417 47.2083C75.0914 46.6446 74.404 45.7266 74.1305 44.6561C73.857 43.5857 74.0199 42.4504 74.5833 41.5L83.8333 25.9583C83.8333 25.5 83.4583 25.5 83.4167 25.5H63.6667L64.9167 26.9583C65.2723 27.3742 65.5426 27.856 65.7121 28.3763C65.8815 28.8966 65.9468 29.4452 65.9043 29.9908C65.8617 30.5363 65.7121 31.0681 65.464 31.5559C65.2159 32.0436 64.8742 32.4777 64.4583 32.8333C64.0425 33.189 63.5607 33.4593 63.0403 33.6287C62.52 33.7982 61.9715 33.8635 61.4259 33.8209C60.8804 33.7784 60.3485 33.6288 59.8608 33.3807C59.3731 33.1326 58.939 32.7909 58.5833 32.375L51.5 24.0417C50.7854 23.2712 50.3884 22.2592 50.3884 21.2083C50.3884 20.1575 50.7854 19.1455 51.5 18.375L59.8333 10.0417C60.6179 9.25707 61.6821 8.81628 62.7917 8.81628C63.3411 8.81628 63.8851 8.9245 64.3927 9.13475C64.9003 9.345 65.3615 9.65317 65.75 10.0417C66.1385 10.4302 66.4467 10.8914 66.6569 11.399C66.8672 11.9066 66.9754 12.4506 66.9754 13C66.9754 13.5494 66.8672 14.0934 66.6569 14.601C66.4467 15.1086 66.1385 15.5698 65.75 15.9583L64.5 17.1667H83.25C84.7969 17.1654 86.3159 17.5782 87.6494 18.3622C88.9829 19.1462 90.0822 20.2727 90.8333 21.625C91.623 22.905 92.0516 24.3748 92.0736 25.8786C92.0956 27.3824 91.7102 28.8641 90.9583 30.1667ZM33.0833 38.5C32.5664 38.3152 32.018 38.2344 31.4697 38.2622C30.9213 38.2901 30.3839 38.426 29.8883 38.6622C29.3927 38.8983 28.9487 39.2302 28.5817 39.6385C28.2147 40.0469 27.9321 40.5237 27.75 41.0417L27.125 42.8333L17.1667 25.8333C17.1667 25.8333 17.1667 25.5 17.4167 25.5H33.8333C34.9384 25.5 35.9982 25.061 36.7796 24.2796C37.561 23.4982 38 22.4384 38 21.3333C38 20.2283 37.561 19.1685 36.7796 18.3871C35.9982 17.6057 34.9384 17.1667 33.8333 17.1667H17.5C16.0012 17.1495 14.5241 17.5251 13.2156 18.2561C11.9071 18.9872 10.8128 20.0481 10.0417 21.3333C9.26179 22.667 8.85077 24.1842 8.85077 25.7292C8.85077 27.2741 9.26179 28.7913 10.0417 30.125L19.375 46.3333L17.7083 45.9167C17.1737 45.7528 16.6115 45.6982 16.0554 45.7561C15.4992 45.814 14.9603 45.9834 14.471 46.2539C13.9816 46.5245 13.5517 46.8908 13.2069 47.3311C12.8621 47.7713 12.6094 48.2764 12.4639 48.8164C12.3184 49.3563 12.2831 49.92 12.3601 50.4739C12.4371 51.0278 12.6247 51.5605 12.9119 52.0403C13.1991 52.5201 13.58 52.9372 14.0318 53.2667C14.4836 53.5962 14.9971 53.8314 15.5417 53.9583L26.9167 57C27.2768 57.0371 27.6398 57.0371 28 57C28.8613 56.9966 29.7004 56.7263 30.4018 56.2264C31.1032 55.7264 31.6324 55.0214 31.9167 54.2083L35.5833 43.9167C35.9586 42.8779 35.9061 41.7326 35.4373 40.7325C34.9685 39.7325 34.1218 38.9594 33.0833 38.5833V38.5ZM72.7083 59.625C72.4331 58.6141 71.7871 57.744 70.8991 57.188C70.0111 56.6321 68.9463 56.431 67.9167 56.625L57.1667 58.8333C56.0616 59.0322 55.0808 59.662 54.4401 60.584C53.7993 61.5061 53.5511 62.6449 53.75 63.75C53.9489 64.8551 54.5787 65.8359 55.5007 66.4766C56.4228 67.1174 57.5616 67.3656 58.6667 67.1667L60.5417 66.8333L50.5 83.5833C50.5 83.5833 50.5 83.8333 49.9583 83.5833L41.25 67.9167C40.9764 67.4406 40.6117 67.0231 40.1768 66.688C39.7419 66.3529 39.2452 66.1068 38.7151 65.9636C38.1851 65.8204 37.632 65.7831 37.0875 65.8537C36.543 65.9243 36.0177 66.1014 35.5417 66.375C35.0656 66.6486 34.6481 67.0133 34.313 67.4482C33.9779 67.8831 33.7318 68.3798 33.5886 68.9099C33.4454 69.4399 33.4081 69.993 33.4787 70.5375C33.5493 71.082 33.7264 71.6073 34 72.0833L42.875 88C43.6196 89.2903 44.6965 90.3575 45.9936 91.0903C47.2907 91.8231 48.7605 92.1948 50.25 92.1667C51.7745 92.2005 53.2812 91.8335 54.6193 91.1023C55.9574 90.3711 57.0801 89.3013 57.875 88L67.1667 71.5833L67.625 73.25C67.8692 74.159 68.4139 74.9586 69.1705 75.5184C69.9271 76.0783 70.851 76.3656 71.7917 76.3333C72.1516 76.3743 72.5151 76.3743 72.875 76.3333C73.407 76.1932 73.906 75.949 74.3431 75.615C74.7803 75.281 75.1469 74.8637 75.422 74.3872C75.697 73.9107 75.875 73.3845 75.9456 72.8389C76.0162 72.2933 75.978 71.7391 75.8333 71.2083L72.7083 59.625Z" fill="white"/>
</g>
</g>
</svg>
