<svg width="16" height="17" viewBox="0 0 16 17" fill="none" xmlns="http://www.w3.org/2000/svg">
<path d="M8 8.80078C6.9 8.80078 5.95833 8.40911 5.175 7.62578C4.39167 6.84245 4 5.90078 4 4.80078C4 3.70078 4.39167 2.75911 5.175 1.97578C5.95833 1.19245 6.9 0.800781 8 0.800781C9.1 0.800781 10.0417 1.19245 10.825 1.97578C11.6083 2.75911 12 3.70078 12 4.80078C12 5.90078 11.6083 6.84245 10.825 7.62578C10.0417 8.40911 9.1 8.80078 8 8.80078ZM0 16.8008V14.0008C0 13.4341 0.146 12.9131 0.438 12.4378C0.73 11.9624 1.11733 11.6001 1.6 11.3508C2.63333 10.8341 3.68333 10.4464 4.75 10.1878C5.81667 9.92911 6.9 9.80011 8 9.80078C9.1 9.80078 10.1833 9.93011 11.25 10.1888C12.3167 10.4474 13.3667 10.8348 14.4 11.3508C14.8833 11.6008 15.271 11.9634 15.563 12.4388C15.855 12.9141 16.0007 13.4348 16 14.0008V16.8008H0ZM2 14.8008H14V14.0008C14 13.8174 13.954 13.6508 13.862 13.5008C13.77 13.3508 13.6493 13.2341 13.5 13.1508C12.6 12.7008 11.6917 12.3634 10.775 12.1388C9.85833 11.9141 8.93333 11.8014 8 11.8008C7.06667 11.8008 6.14167 11.9134 5.225 12.1388C4.30833 12.3641 3.4 12.7014 2.5 13.1508C2.35 13.2341 2.229 13.3508 2.137 13.5008C2.045 13.6508 1.99933 13.8174 2 14.0008V14.8008ZM8 6.80078C8.55 6.80078 9.021 6.60478 9.413 6.21278C9.805 5.82078 10.0007 5.35011 10 4.80078C10 4.25078 9.804 3.77978 9.412 3.38778C9.02 2.99578 8.54933 2.80011 8 2.80078C7.45 2.80078 6.979 2.99678 6.587 3.38878C6.195 3.78078 5.99933 4.25145 6 4.80078C6 5.35078 6.196 5.82178 6.588 6.21378C6.98 6.60578 7.45067 6.80145 8 6.80078Z" fill="#6B6B6B"/>
</svg>
