<svg width="3" height="6" viewBox="0 0 3 6" fill="none" xmlns="http://www.w3.org/2000/svg">
<path d="M0.11472 0.4775C0.0412648 0.551907 0 0.652811 0 0.758023C0 0.863235 0.0412648 0.964139 0.11472 1.03855L2.05423 3.00261L0.11472 4.96667C0.0433465 5.0415 0.00385305 5.14173 0.00474578 5.24576C0.00563851 5.3498 0.0468459 5.44932 0.119493 5.52288C0.192139 5.59645 0.290413 5.63818 0.393147 5.63908C0.495881 5.63998 0.594855 5.59999 0.668753 5.52771L2.88528 3.28313C2.95874 3.20872 3 3.10782 3 3.00261C3 2.8974 2.95874 2.79649 2.88528 2.72208L0.668753 0.4775C0.595276 0.403115 0.495633 0.361328 0.391736 0.361328C0.28784 0.361328 0.188197 0.403115 0.11472 0.4775Z" fill="#6CC4DF"/>
</svg>
