<svg width="22" height="23" viewBox="0 0 22 23" fill="none" xmlns="http://www.w3.org/2000/svg">
<path d="M14.6364 15.1341C14.6364 14.0817 11.7873 13.2294 8.27273 13.2294M14.6364 15.1341C14.6364 16.1865 11.7873 17.0389 8.27273 17.0389C4.75818 17.0389 1.90909 16.1865 1.90909 15.1341M14.6364 15.1341V19.836C14.6364 20.9208 11.7873 21.8008 8.27273 21.8008C4.75818 21.8008 1.90909 20.9217 1.90909 19.836V15.1341M14.6364 15.1341C18.1127 15.1341 21 14.1941 21 13.2294V3.70554M8.27273 13.2294C4.75818 13.2294 1.90909 14.0817 1.90909 15.1341M8.27273 13.2294C4.25636 13.2294 1 12.2894 1 11.3246V6.56269M8.27273 4.65792C4.25636 4.65792 1 5.51031 1 6.56269M1 6.56269C1 7.61507 4.25636 8.46745 8.27273 8.46745C8.27273 9.43221 11.23 10.3722 14.7064 10.3722C18.1818 10.3722 21 9.43221 21 8.46745M21 3.70554C21 2.65316 18.1818 1.80078 14.7064 1.80078C11.23 1.80078 8.41273 2.65316 8.41273 3.70554M21 3.70554C21 4.75792 18.1818 5.61031 14.7064 5.61031C11.2309 5.61031 8.41273 4.75792 8.41273 3.70554M8.41273 3.70554V13.3874" stroke="#6B6B6B" stroke-width="2"/>
</svg>
