<svg width="6" height="10" viewBox="0 0 6 10" fill="none" xmlns="http://www.w3.org/2000/svg">
<path d="M0.6912 0.795487C0.568775 0.919499 0.5 1.08767 0.5 1.26303C0.5 1.43838 0.568775 1.60655 0.6912 1.73057L3.92372 5.004L0.6912 8.27743C0.572244 8.40216 0.506422 8.5692 0.50791 8.74259C0.509398 8.91598 0.578077 9.08185 0.699154 9.20446C0.820232 9.32707 0.984021 9.39661 1.15524 9.39812C1.32647 9.39963 1.49143 9.33297 1.61459 9.21251L5.3088 5.47154C5.43123 5.34753 5.5 5.17935 5.5 5.004C5.5 4.82865 5.43123 4.66047 5.3088 4.53646L1.61459 0.795487C1.49213 0.671513 1.32606 0.601868 1.15289 0.601868C0.979733 0.601868 0.813661 0.671513 0.6912 0.795487Z" fill="white"/>
</svg>
