<svg width="5" height="10" viewBox="0 0 5 10" fill="none" xmlns="http://www.w3.org/2000/svg">
<path d="M0.1912 0.79567C0.0687746 0.919682 0 1.08786 0 1.26321C0 1.43856 0.0687746 1.60674 0.1912 1.73075L3.42372 5.00418L0.1912 8.27762C0.0722442 8.40234 0.00642175 8.56939 0.00790964 8.74278C0.00939752 8.91617 0.0780765 9.08203 0.199154 9.20464C0.320232 9.32725 0.484021 9.3968 0.655244 9.3983C0.826468 9.39981 0.991425 9.33316 1.11459 9.21269L4.8088 5.47172C4.93123 5.34771 5 5.17954 5 5.00418C5 4.82883 4.93123 4.66066 4.8088 4.53664L1.11459 0.79567C0.992127 0.671696 0.826055 0.602051 0.652894 0.602051C0.479733 0.602051 0.313661 0.671696 0.1912 0.79567Z" fill="#6CC4DF"/>
</svg>
