<svg width="17" height="16" viewBox="0 0 17 16" fill="none" xmlns="http://www.w3.org/2000/svg">
<g clip-path="url(#clip0_66_200)">
<path fill-rule="evenodd" clip-rule="evenodd" d="M0.5 3.75C0.5 3.55109 0.579018 3.36032 0.71967 3.21967C0.860322 3.07902 1.05109 3 1.25 3H15.75C15.9489 3 16.1397 3.07902 16.2803 3.21967C16.421 3.36032 16.5 3.55109 16.5 3.75C16.5 3.94891 16.421 4.13968 16.2803 4.28033C16.1397 4.42098 15.9489 4.5 15.75 4.5H1.25C1.05109 4.5 0.860322 4.42098 0.71967 4.28033C0.579018 4.13968 0.5 3.94891 0.5 3.75ZM0.5 8C0.5 7.80109 0.579018 7.61032 0.71967 7.46967C0.860322 7.32902 1.05109 7.25 1.25 7.25H15.75C15.9489 7.25 16.1397 7.32902 16.2803 7.46967C16.421 7.61032 16.5 7.80109 16.5 8C16.5 8.19891 16.421 8.38968 16.2803 8.53033C16.1397 8.67098 15.9489 8.75 15.75 8.75H1.25C1.05109 8.75 0.860322 8.67098 0.71967 8.53033C0.579018 8.38968 0.5 8.19891 0.5 8ZM1.25 11.5C1.05109 11.5 0.860322 11.579 0.71967 11.7197C0.579018 11.8603 0.5 12.0511 0.5 12.25C0.5 12.4489 0.579018 12.6397 0.71967 12.7803C0.860322 12.921 1.05109 13 1.25 13H15.75C15.9489 13 16.1397 12.921 16.2803 12.7803C16.421 12.6397 16.5 12.4489 16.5 12.25C16.5 12.0511 16.421 11.8603 16.2803 11.7197C16.1397 11.579 15.9489 11.5 15.75 11.5H1.25Z" fill="black"/>
</g>
<defs>
<clipPath id="clip0_66_200">
<rect width="16" height="16" fill="white" transform="translate(0.5)"/>
</clipPath>
</defs>
</svg>
