<svg width="20" height="21" viewBox="0 0 20 21" fill="none" xmlns="http://www.w3.org/2000/svg">
<path id="linkedin" d="M0 1.9325C0 1.14125 0.6575 0.5 1.46875 0.5H18.5312C19.3425 0.5 20 1.14125 20 1.9325V19.0675C20 19.8587 19.3425 20.5 18.5312 20.5H1.46875C0.6575 20.5 0 19.8587 0 19.0675V1.9325ZM6.17875 17.2425V8.21125H3.1775V17.2425H6.17875ZM4.67875 6.9775C5.725 6.9775 6.37625 6.285 6.37625 5.4175C6.3575 4.53125 5.72625 3.8575 4.69875 3.8575C3.67125 3.8575 3 4.5325 3 5.4175C3 6.285 3.65125 6.9775 4.65875 6.9775H4.67875ZM10.8138 17.2425V12.1988C10.8138 11.9288 10.8337 11.6587 10.9137 11.4662C11.13 10.9275 11.6238 10.3687 12.4538 10.3687C13.54 10.3687 13.9738 11.1962 13.9738 12.4113V17.2425H16.975V12.0625C16.975 9.2875 15.495 7.9975 13.52 7.9975C11.9275 7.9975 11.2137 8.8725 10.8138 9.48875V9.52H10.7938C10.8004 9.50957 10.8071 9.49915 10.8138 9.48875V8.21125H7.81375C7.85125 9.05875 7.81375 17.2425 7.81375 17.2425H10.8138Z" fill="#F8F8F8"/>
</svg>
