<svg width="69" height="68" viewBox="0 0 69 68" fill="none" xmlns="http://www.w3.org/2000/svg">
<g id="Group">
<rect id="circle" x="0.5" width="68" height="68" rx="34" fill="#0D82BE"/>
<path id="project" d="M49.5 35.1538H38.3889V42.6169C38.3917 43.709 38.6916 44.778 39.254 45.7007C39.8164 46.6235 40.6185 47.3624 41.5678 47.8323L43.9444 49L46.3211 47.8312C47.2704 47.3612 48.0725 46.6223 48.6349 45.6996C49.1973 44.7768 49.4972 43.7078 49.5 42.6158V35.1538ZM43.9444 46.4454L42.5189 45.745C41.9493 45.4633 41.468 45.0202 41.1305 44.4668C40.7929 43.9133 40.6129 43.272 40.6111 42.6169V37.4615H47.2778V42.6169C47.2758 43.2718 47.0957 43.9129 46.7581 44.4661C46.4206 45.0193 45.9394 45.4623 45.37 45.7438L43.9444 46.4465V46.4454ZM35.0556 35.1538H21.7222C21.1329 35.1538 20.5676 35.397 20.1509 35.8298C19.7341 36.2625 19.5 36.8495 19.5 37.4615V43.2308C19.5 43.8428 19.7341 44.4298 20.1509 44.8626C20.5676 45.2953 21.1329 45.5385 21.7222 45.5385H35.0556V43.2308H21.7222V37.4615H35.0556V35.1538ZM46.1667 19H40.6111C40.0217 19 39.4565 19.2431 39.0398 19.6759C38.623 20.1087 38.3889 20.6957 38.3889 21.3077V31.6923H40.6111V21.3077H46.1667V31.6923H48.3889V21.3077C48.3889 20.6957 48.1548 20.1087 47.738 19.6759C47.3213 19.2431 46.756 19 46.1667 19ZM32.8333 19H21.7222C21.1329 19 20.5676 19.2431 20.1509 19.6759C19.7341 20.1087 19.5 20.6957 19.5 21.3077V29.3846C19.5 29.9967 19.7341 30.5836 20.1509 31.0164C20.5676 31.4492 21.1329 31.6923 21.7222 31.6923H32.8333C33.4227 31.6923 33.9879 31.4492 34.4047 31.0164C34.8214 30.5836 35.0556 29.9967 35.0556 29.3846V21.3077C35.0556 20.6957 34.8214 20.1087 34.4047 19.6759C33.9879 19.2431 33.4227 19 32.8333 19ZM21.7222 29.3846V21.3077H32.8333V29.3846H21.7222Z" fill="#F8F8F8"/>
</g>
</svg>
