<svg width="24" height="24" viewBox="0 0 24 24" fill="none" xmlns="http://www.w3.org/2000/svg">
<path id="soap" d="M17.7417 1.66461C16.6757 0.598773 15.2301 0 13.7228 0C12.2154 0 10.7698 0.598773 9.70386 1.66461L4.01999 7.34864C3.50995 7.20785 2.97075 7.21212 2.463 7.36097C1.95525 7.50982 1.49908 7.79736 1.14578 8.19125C0.792479 8.58514 0.556046 9.06977 0.463059 9.59067C0.370073 10.1116 0.424221 10.6481 0.619416 11.1399C0.0744876 12.2098 -0.117819 13.4247 0.0700495 14.6106C0.257918 15.7964 0.816319 16.8924 1.66525 17.7415L6.25862 22.335C6.78643 22.8629 7.41304 23.2816 8.10267 23.5673C8.79231 23.853 9.53146 24 10.2779 24C11.0244 24 11.7635 23.853 12.4532 23.5673C13.1428 23.2816 13.7694 22.8629 14.2972 22.335L14.691 21.9412C14.9471 22.2496 15.2887 22.4753 15.6729 22.5899C16.0571 22.7044 16.4665 22.7026 16.8497 22.5848C17.2328 22.4669 17.5725 22.2383 17.8259 21.9276C18.0793 21.617 18.235 21.2383 18.2735 20.8393C19.0702 21.1235 19.9407 21.1226 20.7368 20.8366C21.5328 20.5506 22.2049 19.9973 22.6386 19.271C23.0722 18.5448 23.2404 17.6906 23.1146 16.8541C22.9888 16.0177 22.5766 15.2508 21.9485 14.6843L22.335 14.297C22.8629 13.7691 23.2816 13.1425 23.5673 12.4529C23.853 11.7632 24 11.024 24 10.2775C24 9.53105 23.853 8.79188 23.5673 8.10222C23.2816 7.41256 22.8629 6.78594 22.335 6.25812L17.7417 1.66461ZM6.08973 9.81063C6.03348 9.23209 5.80043 8.68491 5.42228 8.24347L10.852 2.81279C11.6134 2.0514 12.646 1.62366 13.7228 1.62366C14.7995 1.62366 15.8321 2.0514 16.5935 2.81279L21.1869 7.40629C21.9483 8.16769 22.376 9.20036 22.376 10.2771C22.376 11.3539 21.9483 12.3866 21.1869 13.148L20.4642 13.8707C19.5836 13.6305 18.645 13.7281 17.8326 14.1443L20.4155 11.5613C20.5664 11.4105 20.6861 11.2314 20.7677 11.0344C20.8494 10.8373 20.8914 10.6261 20.8914 10.4127C20.8914 10.1994 20.8494 9.98818 20.7677 9.7911C20.6861 9.59403 20.5664 9.41497 20.4155 9.26416L14.6748 3.52329C14.524 3.37229 14.3449 3.25251 14.1477 3.17078C13.9506 3.08906 13.7393 3.04699 13.5258 3.04699C13.3124 3.04699 13.1011 3.08906 12.904 3.17078C12.7068 3.25251 12.5277 3.37229 12.3769 3.52329L6.08973 9.81145V9.81063ZM5.89729 11.1513L12.9518 4.09656C13.104 3.94434 13.3105 3.85882 13.5258 3.85882C13.7412 3.85882 13.9477 3.94434 14.0999 4.09656L19.8414 9.83824C19.9169 9.91366 19.9768 10.0032 20.0177 10.1018C20.0585 10.2004 20.0796 10.306 20.0796 10.4127C20.0796 10.5194 20.0585 10.6251 20.0177 10.7237C19.9768 10.8223 19.9169 10.9118 19.8414 10.9872L10.6547 20.1734C10.5024 20.3257 10.2959 20.4112 10.0806 20.4112C9.86531 20.4112 9.65881 20.3257 9.50655 20.1734L3.76584 14.4326C3.69035 14.3571 3.63046 14.2676 3.58959 14.169C3.54873 14.0704 3.5277 13.9648 3.5277 13.8581C3.5277 13.7514 3.54873 13.6457 3.58959 13.5471C3.63046 13.4485 3.69035 13.359 3.76584 13.2836L4.32367 12.7249C4.67806 12.5815 4.99999 12.3683 5.27032 12.0979C5.54065 11.8276 5.75387 11.5057 5.89729 11.1513ZM1.80328 12.5284C2.17159 12.7491 2.58535 12.883 3.01314 12.9198C2.79185 13.2328 2.6884 13.614 2.72109 13.9959C2.75379 14.3778 2.92051 14.7358 3.19177 15.0066L8.93247 20.7475C9.08328 20.8984 9.26234 21.0181 9.45941 21.0997C9.65648 21.1814 9.8677 21.2234 10.081 21.2234C10.2943 21.2234 10.5056 21.1814 10.7026 21.0997C10.8997 21.0181 11.0788 20.8984 11.2296 20.7475L16.2484 15.7285C15.8323 16.5409 15.7347 17.4796 15.9748 18.3602L15.6208 18.7143C15.3177 18.8138 15.0423 18.9831 14.8168 19.2087C14.5913 19.4342 14.4219 19.7096 14.3224 20.0127L13.1491 21.1868C12.7721 21.5639 12.3245 21.8631 11.8318 22.0672C11.3392 22.2713 10.8112 22.3763 10.2779 22.3763C9.74468 22.3763 9.21666 22.2713 8.72402 22.0672C8.23138 21.8631 7.78377 21.5639 7.40676 21.1868L2.8142 16.5925C2.29216 16.0708 1.92219 15.4167 1.74407 14.7005C1.56596 13.9843 1.58643 13.2339 1.80328 12.5284ZM19.5004 20.2384C18.7467 20.2384 18.0238 19.939 17.4909 19.406C16.9579 18.873 16.6585 18.1501 16.6585 17.3964C16.6585 16.6426 16.9579 15.9197 17.4909 15.3868C18.0238 14.8538 18.7467 14.5544 19.5004 14.5544C20.2541 14.5544 20.977 14.8538 21.51 15.3868C22.0429 15.9197 22.3423 16.6426 22.3423 17.3964C22.3423 18.1501 22.0429 18.873 21.51 19.406C20.977 19.939 20.2541 20.2384 19.5004 20.2384ZM16.2525 19.4264C16.3288 19.4264 16.4035 19.4337 16.4758 19.4467C16.7356 19.83 17.0669 20.1612 17.4502 20.4211C17.4961 20.6673 17.465 20.9217 17.3611 21.1496C17.2572 21.3775 17.0856 21.5678 16.8697 21.6946C16.6537 21.8215 16.4039 21.8787 16.1543 21.8584C15.9046 21.8381 15.6673 21.7414 15.4747 21.5814C15.282 21.4214 15.1433 21.2059 15.0776 20.9642C15.0118 20.7225 15.0222 20.4664 15.1072 20.2309C15.1922 19.9953 15.3478 19.7917 15.5528 19.6477C15.7577 19.5037 16.002 19.4265 16.2525 19.4264ZM3.26079 12.1183C2.72241 12.1183 2.20609 11.9045 1.8254 11.5238C1.44471 11.1431 1.23084 10.6267 1.23084 10.0883C1.23084 9.54995 1.44471 9.03361 1.8254 8.65291C2.20609 8.27221 2.72241 8.05833 3.26079 8.05833C3.79917 8.05833 4.31549 8.27221 4.69618 8.65291C5.07687 9.03361 5.29074 9.54995 5.29074 10.0883C5.29074 10.6267 5.07687 11.1431 4.69618 11.5238C4.31549 11.9045 3.79917 12.1183 3.26079 12.1183ZM3.66678 3.59231C3.66678 3.91534 3.53846 4.22515 3.31004 4.45357C3.08163 4.68199 2.77183 4.81031 2.44881 4.81031C2.12578 4.81031 1.81599 4.68199 1.58757 4.45357C1.35916 4.22515 1.23084 3.91534 1.23084 3.59231C1.23084 3.26927 1.35916 2.95947 1.58757 2.73105C1.81599 2.50263 2.12578 2.3743 2.44881 2.3743C2.77183 2.3743 3.08163 2.50263 3.31004 2.73105C3.53846 2.95947 3.66678 3.26927 3.66678 3.59231ZM2.8548 3.59231C2.8548 3.48463 2.81202 3.38136 2.73589 3.30522C2.65975 3.22908 2.55648 3.18631 2.44881 3.18631C2.34113 3.18631 2.23787 3.22908 2.16173 3.30522C2.08559 3.38136 2.04282 3.48463 2.04282 3.59231C2.04282 3.69999 2.08559 3.80326 2.16173 3.8794C2.23787 3.95554 2.34113 3.99831 2.44881 3.99831C2.55648 3.99831 2.65975 3.95554 2.73589 3.8794C2.81202 3.80326 2.8548 3.69999 2.8548 3.59231Z" fill="#0D82BE"/>
</svg>
