<svg width="30" height="30" viewBox="0 0 30 30" fill="none" xmlns="http://www.w3.org/2000/svg">
<path id="speaker" d="M17.4956 1.24989C17.4956 1.00403 17.4231 0.763644 17.2872 0.558795C17.1512 0.353947 16.958 0.193738 16.7315 0.0982126C16.505 0.00268702 16.2554 -0.0239127 16.0139 0.0217409C15.7723 0.0673944 15.5496 0.183274 15.3736 0.354882L8.05797 7.47995H3.74906C2.75475 7.47995 1.80116 7.87505 1.09807 8.57831C0.394989 9.28158 0 10.2354 0 11.23V18.7051C0 19.6996 0.394989 20.6535 1.09807 21.3567C1.80116 22.06 2.75475 22.4551 3.74906 22.4551H8.05547L15.3711 29.6427C15.5469 29.815 15.7696 29.9315 16.0113 29.9778C16.253 30.024 16.5029 29.9978 16.7298 29.9025C16.9567 29.8072 17.1504 29.647 17.2866 29.442C17.4229 29.237 17.4956 28.9963 17.4956 28.7502V1.24989ZM20.2724 7.97246C20.3746 7.84384 20.5011 7.73663 20.6447 7.65696C20.7884 7.57729 20.9463 7.52673 21.1095 7.50815C21.2727 7.48958 21.4379 7.50336 21.5958 7.54871C21.7536 7.59406 21.901 7.67009 22.0295 7.77246L22.0345 7.77496L22.0395 7.77996L22.052 7.78996L22.0894 7.82246L22.2044 7.92246C22.2944 8.00746 22.4169 8.12246 22.5593 8.27746C22.8418 8.58496 23.2092 9.03247 23.5716 9.62747C24.2989 10.8275 25.0037 12.61 25.0037 14.9975C25.0037 17.3826 24.2989 19.1676 23.5716 20.3676C23.28 20.851 22.9409 21.3041 22.5593 21.7201C22.4004 21.8928 22.2318 22.0564 22.0545 22.2101L22.0345 22.2276H22.032C22.032 22.2276 20.9147 22.8351 20.2749 22.0326C20.0692 21.7751 19.9734 21.4468 20.0085 21.119C20.0436 20.7912 20.2067 20.4906 20.4624 20.2826L20.4674 20.2776L20.5123 20.2376C20.5573 20.1951 20.6323 20.1251 20.7248 20.0251C20.9924 19.7311 21.2302 19.4111 21.4346 19.0701C21.9595 18.2076 22.5043 16.865 22.5043 14.995C22.5043 13.1275 21.9595 11.7875 21.4346 10.9275C21.1776 10.5032 20.8686 10.1126 20.5148 9.76498C20.3782 9.66551 20.2631 9.53936 20.1766 9.39413C20.09 9.24891 20.0339 9.08763 20.0114 8.92007C19.989 8.75251 20.0008 8.58213 20.0461 8.41925C20.0914 8.25638 20.1692 8.10438 20.2749 7.97246H20.2724ZM24.5263 2.77241C24.3984 2.6665 24.2506 2.58716 24.0917 2.53902C23.9327 2.49089 23.7658 2.47493 23.6006 2.49207C23.4354 2.50921 23.2753 2.55911 23.1296 2.63886C22.984 2.7186 22.8556 2.82659 22.7521 2.95651C22.6487 3.08644 22.5721 3.23569 22.527 3.39554C22.4818 3.5554 22.469 3.72265 22.4892 3.88753C22.5094 4.05241 22.5622 4.21161 22.6447 4.35582C22.7271 4.50003 22.8374 4.62636 22.9692 4.72743L22.9967 4.75243L23.1267 4.86493C23.2442 4.96993 23.4166 5.13243 23.6291 5.35243C24.054 5.79494 24.6288 6.45994 25.2037 7.33745C26.3534 9.08997 27.5031 11.67 27.5031 15.01C27.5095 17.7353 26.7095 20.4014 25.2037 22.6726C24.6288 23.5476 24.054 24.2076 23.6291 24.6476C23.4281 24.8569 23.2179 25.057 22.9992 25.2476L22.9717 25.2726H22.9692C22.717 25.4814 22.5568 25.7809 22.523 26.1066C22.4892 26.4324 22.5846 26.7584 22.7886 27.0145C22.9926 27.2707 23.2889 27.4365 23.6139 27.4764C23.9389 27.5162 24.2665 27.4269 24.5263 27.2277L24.6088 27.1602L24.7963 26.9976C24.9537 26.8551 25.1712 26.6526 25.4286 26.3851C26.1214 25.6647 26.7456 24.8813 27.2931 24.0451C29.0656 21.3659 30.0073 18.2227 30 15.01C30.0063 11.7944 29.0648 8.64824 27.2931 5.96494C26.7457 5.12774 26.1224 4.34275 25.4311 3.61991C25.1699 3.34836 24.8963 3.08892 24.6113 2.84241L24.5538 2.79491L24.5363 2.77991L24.5313 2.77491L24.5263 2.77241Z" fill="#0D82BE"/>
</svg>
