<svg width="69" height="68" viewBox="0 0 69 68" fill="none" xmlns="http://www.w3.org/2000/svg">
<g id="Group 1">
<rect id="circle" x="0.5" width="68" height="68" rx="34" fill="#0D82BE"/>
<path id="customer service" d="M49.5 40.5732C49.4993 42.5398 48.7982 44.4472 47.5125 45.9796C46.2269 47.5121 44.434 48.5777 42.4305 49L41.4735 46.2476C42.3499 46.1093 43.1833 45.7862 43.9137 45.3018C44.6441 44.8174 45.2534 44.1837 45.6975 43.4464H42C41.2044 43.4464 40.4413 43.1434 39.8787 42.604C39.3161 42.0646 39 41.3331 39 40.5703V34.8182C39 34.0555 39.3161 33.3239 39.8787 32.7846C40.4413 32.2452 41.2044 31.9422 42 31.9422H46.407C46.041 29.1623 44.6294 26.6061 42.4371 24.7531C40.2449 22.9 37.4227 21.8776 34.5 21.8776C31.5773 21.8776 28.7551 22.9 26.5629 24.7531C24.3706 26.6061 22.959 29.1623 22.593 31.9422H27C27.7956 31.9422 28.5587 32.2452 29.1213 32.7846C29.6839 33.3239 30 34.0555 30 34.8182V40.5703C30 41.3331 29.6839 42.0646 29.1213 42.604C28.5587 43.1434 27.7956 43.4464 27 43.4464H22.5C21.7044 43.4464 20.9413 43.1434 20.3787 42.604C19.8161 42.0646 19.5 41.3331 19.5 40.5703V33.3802C19.5 25.438 26.2155 19 34.5 19C42.7845 19 49.5 25.438 49.5 33.3802V40.5732Z" fill="#F8F8F8"/>
</g>
</svg>
