<svg width="93" height="93" viewBox="0 0 93 93" fill="none" xmlns="http://www.w3.org/2000/svg">
<path fill-rule="evenodd" clip-rule="evenodd" d="M46.5 92.3334C71.8129 92.3334 92.3334 71.8129 92.3334 46.5C92.3334 21.187 71.8129 0.666687 46.5 0.666687C21.187 0.666687 0.666687 21.187 0.666687 46.5C0.666687 71.8129 21.187 92.3334 46.5 92.3334ZM9.48898 52.3917C9.18585 50.4721 9.02848 48.5046 9.02848 46.5C9.02848 29.5406 20.2951 15.2127 35.7519 10.5927C35.1199 13.9784 33.6716 16.6201 32.183 19.3357C31.9103 19.8333 31.6359 20.3337 31.3652 20.8413C30.3226 22.7963 29.0521 25.3737 29.0521 28.3034C29.0521 31.5269 30.5397 34.349 33.1371 36.9463C35.9913 39.8004 36.5779 42.0829 37.2407 44.6621C37.3342 45.0259 37.4292 45.3954 37.5323 45.7734C37.9621 47.3496 38.6463 49.4867 40.4613 51.3017C42.2775 53.1179 44.7384 54.1467 47.7663 54.7525C57.1846 56.6363 60.125 60.15 61.5234 62.9467C61.6467 63.1938 61.8788 64.0321 62.0054 65.8071C62.1229 67.4529 62.125 69.3775 62.125 71.5V71.5871C62.125 73.6075 62.125 75.8146 62.2659 77.7863C62.3234 78.5917 62.4096 79.4738 62.5625 80.3642C58.7663 82.1679 54.6184 83.3521 50.25 83.7863C49.8346 81.8913 49.0642 80.1271 47.75 78.375C45.7617 75.7242 42.6288 73.2842 38.5834 70.25C37.5007 69.4379 37.2065 68.6842 37.1083 67.7879C36.9748 66.5692 37.2175 65.1829 37.6027 63.0209L37.6268 62.8859C37.9476 61.0892 38.4309 58.3829 37.8166 55.8096C37.0607 52.6421 34.8758 50.2796 31.3808 48.8813C24.8192 46.2567 17.7028 48.4667 12.9815 50.6159C11.7122 51.1938 10.5361 51.8038 9.48898 52.3917ZM11.8127 60.7004C16.7721 72.8017 27.88 81.7325 41.2509 83.6067C40.1434 82.0113 38.0897 80.2963 33.5834 76.9167C30.4993 74.6038 29.1514 71.6796 28.8245 68.695C28.5543 66.2283 29.006 63.7309 29.3255 61.9646L29.3986 61.5592C29.7805 59.4154 29.8678 58.4013 29.7109 57.7438L29.7051 57.7159C29.6747 57.5596 29.5935 57.1417 28.2859 56.6188C25.0681 55.3317 20.7262 56.2467 16.434 58.2004C14.6341 59.0196 13.0356 59.9338 11.8127 60.7004ZM46.5 9.02848C45.7729 9.02848 45.0509 9.04919 44.3342 9.09002C43.8425 15.5199 41.26 20.1703 39.4446 23.4385C39.1838 23.9081 38.9388 24.3492 38.7184 24.7629C37.6774 26.7142 37.3854 27.6524 37.3854 28.3034C37.3854 28.6606 37.4603 29.4844 39.0296 31.0537C43.5534 35.5773 44.6313 39.8646 45.3279 42.635C45.4129 42.9738 45.4925 43.2896 45.5721 43.5809C45.9234 44.8692 46.1509 45.2063 46.3538 45.4092C46.5559 45.6113 47.22 46.145 49.4004 46.5809C60.8154 48.8638 66.2083 53.6834 68.9767 59.22C69.895 61.0563 70.1838 63.3429 70.3175 65.2138C70.4584 67.1854 70.4584 69.3925 70.4584 71.4134V71.5C70.4584 72.8492 70.4592 74.1184 70.49 75.2867C78.7292 68.4129 83.9717 58.0688 83.9717 46.5C83.9717 45.9425 83.9592 45.3875 83.9354 44.8359C80.8896 44.9217 78.5059 43.7267 76.6275 42.785C73.6413 41.2892 70.7238 40.25 67.3334 40.25C64.2013 40.25 61.545 39.625 59.425 38.094C57.3075 36.5646 56.2846 34.5248 55.6521 32.9433C55.2917 32.0416 55.0229 31.2927 54.7959 30.659C54.1221 28.7783 53.8104 27.9092 52.5221 27.0502C50.3242 25.5849 48.6179 23.5509 48.3717 20.7595C48.1609 18.372 49.1513 16.2554 49.8046 14.9491C50.0913 14.3757 50.3717 13.8404 50.6371 13.3333C51.3679 11.9373 51.9929 10.7437 52.3696 9.48552C50.4571 9.18469 48.4967 9.02848 46.5 9.02848ZM82.5713 36.3166C81.9725 36.1193 81.2229 35.7654 80.1342 35.2211L80.1133 35.2107C77.3633 33.8356 73.5254 31.9167 67.3334 31.9167C65.2571 31.9167 64.5279 31.5 64.3042 31.3383C64.0779 31.1751 63.7988 30.8711 63.3896 29.8484C63.2917 29.6035 63.1842 29.28 63.0571 28.8981C62.3388 26.7366 60.9913 22.6809 57.1446 20.1165C56.5334 19.7091 56.9538 19.2844 57.2579 18.6759C57.4038 18.3844 57.5859 18.0471 57.7909 17.6672C58.5684 16.2265 59.6763 14.1736 60.3875 11.6862C71.1175 15.9703 79.4029 25.0713 82.5713 36.3166Z" fill="white" stroke="#0D82BE"/>
</svg>
