<svg width="20" height="23" viewBox="0 0 20 23" fill="none" xmlns="http://www.w3.org/2000/svg">
<path id="tiktok" d="M15.8673 3.61736C14.9954 2.62198 14.5149 1.34367 14.5153 0.0204163H10.574V15.8367C10.5436 16.6926 10.1822 17.5033 9.56603 18.0981C8.94982 18.6929 8.12685 19.0254 7.27041 19.0255C5.45918 19.0255 3.95408 17.5459 3.95408 15.7092C3.95408 13.5153 6.07143 11.8699 8.25255 12.5459V8.51531C3.85204 7.92858 0 11.3469 0 15.7092C0 19.9566 3.52041 22.9796 7.25765 22.9796C11.2628 22.9796 14.5153 19.727 14.5153 15.7092V7.68623C16.1135 8.834 18.0324 9.44981 20 9.44644V5.50511C20 5.50511 17.602 5.61991 15.8673 3.61736Z" fill="white"/>
</svg>
