<svg width="20" height="15" viewBox="0 0 20 15" fill="none" xmlns="http://www.w3.org/2000/svg">
<path id="youtube" d="M8 10.5L13.19 7.5L8 4.5V10.5ZM19.56 2.67C19.69 3.14 19.78 3.77 19.84 4.57C19.91 5.37 19.94 6.06 19.94 6.66L20 7.5C20 9.69 19.84 11.3 19.56 12.33C19.31 13.23 18.73 13.81 17.83 14.06C17.36 14.19 16.5 14.28 15.18 14.34C13.88 14.41 12.69 14.44 11.59 14.44L10 14.5C5.81 14.5 3.2 14.34 2.17 14.06C1.27 13.81 0.69 13.23 0.44 12.33C0.31 11.86 0.22 11.23 0.16 10.43C0.0900001 9.63 0.0599999 8.94 0.0599999 8.34L0 7.5C0 5.31 0.16 3.7 0.44 2.67C0.69 1.77 1.27 1.19 2.17 0.94C2.64 0.81 3.5 0.72 4.82 0.66C6.12 0.59 7.31 0.56 8.41 0.56L10 0.5C14.19 0.5 16.8 0.66 17.83 0.94C18.73 1.19 19.31 1.77 19.56 2.67Z" fill="white"/>
</svg>
