<svg width="20" height="24" viewBox="0 0 20 24" fill="none" xmlns="http://www.w3.org/2000/svg">
<path d="M15.8673 4.11732C14.9954 3.12194 14.5149 1.84364 14.5153 0.520386H10.574V16.3367C10.5436 17.1926 10.1822 18.0033 9.56603 18.5981C8.94982 19.1929 8.12685 19.5254 7.27041 19.5255C5.45918 19.5255 3.95408 18.0459 3.95408 16.2092C3.95408 14.0153 6.07143 12.3699 8.25255 13.0459V9.01528C3.85204 8.42855 0 11.8469 0 16.2092C0 20.4566 3.52041 23.4796 7.25765 23.4796C11.2628 23.4796 14.5153 20.227 14.5153 16.2092V8.1862C16.1135 9.33397 18.0324 9.94978 20 9.94641V6.00508C20 6.00508 17.602 6.11988 15.8673 4.11732Z" fill="#0D82BE"/>
</svg>
