<svg width="20" height="21" viewBox="0 0 20 21" fill="none" xmlns="http://www.w3.org/2000/svg">
<path id="twitter" d="M17.9676 5.56797V6.22839C17.9676 12.8788 13.8378 20.5 6.28108 20.5C4.05024 20.5059 1.86677 19.7138 0 18.2215C0.324203 18.2753 0.65123 18.2996 0.978378 18.2942C2.82757 18.3004 4.62477 17.5468 6.08108 16.1544C5.22199 16.139 4.38874 15.7931 3.69976 15.1659C3.01078 14.5387 2.50113 13.6622 2.24324 12.6608C2.49914 12.7271 2.76004 12.7603 3.02162 12.7599C3.3869 12.76 3.75052 12.7 4.1027 12.5816C3.17221 12.355 2.33509 11.7403 1.73459 10.8428C1.13409 9.94528 0.807542 8.8207 0.810811 7.66149V7.59545C1.38011 7.98398 2.01836 8.19707 2.67027 8.21624C1.80248 7.51855 1.1855 6.44235 0.945389 5.20752C0.705275 3.97269 0.860153 2.67245 1.37838 1.57246C2.41095 3.1241 3.69924 4.39287 5.15948 5.29629C6.61973 6.19971 8.21925 6.71756 9.85405 6.81616C9.77313 6.44132 9.73493 6.05463 9.74054 5.66703C9.7101 4.64267 9.93881 3.63173 10.3955 2.77188C10.8522 1.91202 11.5147 1.24503 12.2929 0.86173C13.071 0.478427 13.9269 0.397438 14.744 0.629789C15.5612 0.862141 16.2998 1.39654 16.8595 2.16023C17.7793 1.93342 18.6617 1.52048 19.4703 0.938458C19.1637 2.1215 18.5114 3.12529 17.6378 3.75843C18.4538 3.62106 19.2494 3.34081 20 2.92631C19.456 3.94707 18.7678 4.84155 17.9676 5.56797Z" fill="white"/>
</svg>
