<svg width="21" height="20" viewBox="0 0 21 20" fill="none" xmlns="http://www.w3.org/2000/svg">
<path d="M18.4676 5.06797V5.72839C18.4676 12.3788 14.3378 20 6.78108 20C4.55024 20.0059 2.36677 19.2138 0.5 17.7215C0.824203 17.7753 1.15123 17.7996 1.47838 17.7942C3.32757 17.8004 5.12477 17.0468 6.58108 15.6544C5.72199 15.639 4.88874 15.2931 4.19976 14.6659C3.51078 14.0387 3.00113 13.1622 2.74324 12.1608C2.99914 12.2271 3.26004 12.2603 3.52162 12.2599C3.8869 12.26 4.25052 12.2 4.6027 12.0816C3.67221 11.855 2.83509 11.2403 2.23459 10.3428C1.63409 9.44528 1.30754 8.3207 1.31081 7.16149V7.09545C1.88011 7.48398 2.51836 7.69707 3.17027 7.71624C2.30248 7.01855 1.6855 5.94235 1.44539 4.70752C1.20527 3.47269 1.36015 2.17245 1.87838 1.07246C2.91095 2.6241 4.19924 3.89287 5.65948 4.79629C7.11973 5.69971 8.71925 6.21756 10.3541 6.31616C10.2731 5.94132 10.2349 5.55463 10.2405 5.16703C10.2101 4.14267 10.4388 3.13173 10.8955 2.27188C11.3522 1.41202 12.0147 0.745032 12.7929 0.36173C13.571 -0.0215728 14.4269 -0.102562 15.244 0.129789C16.0612 0.362141 16.7998 0.896542 17.3595 1.66023C18.2793 1.43342 19.1617 1.02048 19.9703 0.438458C19.6637 1.6215 19.0114 2.62529 18.1378 3.25843C18.9538 3.12106 19.7494 2.84081 20.5 2.42631C19.956 3.44707 19.2678 4.34155 18.4676 5.06797Z" fill="#0D82BE"/>
</svg>
